PathFileType	4	(X/Y/Z)	 s08c0102.trc
DataRate	CameraRate	NumFrames	NumMarkers	Units	OrigDataRate	OrigDataStartFrame	OrigNumFrames
200	200	5	50	mm	200	1	2000
Frame#	Time	racr			lacr			c7			jug			rlel			rdr			llel			ldr			s2			lic			ric			lasi			rasi			rpsi			lpsi			rgt			lgt			rth1			rth2			rth3			rth4			rlfc			rmfc			rsh1			rsh2			rsh3			rsh4			rlmal			rmmal			rcal			rtoe			rmt5			lth1			lth2			lth4			lth3			llfc			lmfc			llmal			lmmal			lcal			lmt5			lsh1			lsh2			lsh3			lsh4			ltoe			SBIKE			LBIKE			RBIKE			
		X1	Y1	Z1	X2	Y2	Z2	X3	Y3	Z3	X4	Y4	Z4	X5	Y5	Z5	X6	Y6	Z6	X7	Y7	Z7	X8	Y8	Z8	X9	Y9	Z9	X10	Y10	Z10	X11	Y11	Z11	X12	Y12	Z12	X13	Y13	Z13	X14	Y14	Z14	X15	Y15	Z15	X16	Y16	Z16	X17	Y17	Z17	X18	Y18	Z18	X19	Y19	Z19	X20	Y20	Z20	X21	Y21	Z21	X22	Y22	Z22	X23	Y23	Z23	X24	Y24	Z24	X25	Y25	Z25	X26	Y26	Z26	X27	Y27	Z27	X28	Y28	Z28	X29	Y29	Z29	X30	Y30	Z30	X31	Y31	Z31	X32	Y32	Z32	X33	Y33	Z33	X34	Y34	Z34	X35	Y35	Z35	X36	Y36	Z36	X37	Y37	Z37	X38	Y38	Z38	X39	Y39	Z39	X40	Y40	Z40	X41	Y41	Z41	X42	Y42	Z42	X43	Y43	Z43	X44	Y44	Z44	X45	Y45	Z45	X46	Y46	Z46	X47	Y47	Z47	X48	Y48	Z48	X49	Y49	Z49	X50	Y50	Z50	
1	0.0050	558.862516	1379.065751	-46.318165	582.876012	1390.647844	-403.175493	547.805731	1443.584253	-216.528673	536.069741	1293.477476	-221.536480	631.468257	1134.111254	19.989792	808.853303	887.571276	-43.897720	669.907762	1146.502062	-438.264049	821.324332	892.548421	-391.735254	2.323107	1207.411674	-234.898552	178.743748	1167.407144	-371.380331	161.424710	1199.635061	-66.172298	192.974519	1114.980285	-348.236176	176.239922	1145.614335	-98.782109	34.581831	1247.870093	-184.003208	44.207718	1244.229503	-279.893203	72.964511	1114.755940	-22.359282	88.255649	1060.256619	-406.241326	214.474490	1024.683844	-18.821876	301.187196	1005.643466	-19.384325	365.666882	947.484554	-23.144104	316.650872	1037.302173	-33.213839	464.455612	876.002881	-43.408744	476.637826	876.601864	-170.768725	398.154657	763.443895	-16.349160	389.580631	676.154920	-40.904026	337.098871	606.802750	-45.441057	415.575724	671.348337	-68.442124	287.272634	499.456572	-58.400914	305.032442	523.480629	-143.598205	209.240733	463.286320	-102.796579	505.841483	481.360915	-95.415902	420.347136	441.452335	-30.384838	127.015118	928.220155	-416.855279	172.976990	854.094803	-409.726467	200.338850	866.408408	-427.176429	174.513324	765.316595	-407.292167	196.657392	638.024635	-379.591491	180.991255	616.162012	-279.562934	20.061429	255.947692	-393.291669	36.259482	276.472746	-307.119174	-48.160032	212.856159	-355.694100	166.623473	209.033921	-414.083930	143.740657	519.679793	-411.116172	123.826600	438.099021	-392.020995	70.449809	368.482372	-399.319606	139.705992	434.329705	-356.988687	237.192851	256.524810	-343.273418	-135.047334	942.170772	-221.976070	26.316644	84.215385	-426.295937	17.437521	80.341248	-27.736972	
2	0.0100	558.949554	1379.042588	-46.249129	583.001242	1390.696446	-403.208951	547.946754	1443.599613	-216.543118	536.232617	1293.517575	-221.516192	631.408243	1134.070631	20.042892	808.773540	887.609095	-43.929408	670.030591	1146.548257	-438.431586	821.318459	892.552526	-391.761515	2.454183	1207.449979	-234.887271	178.818431	1167.269428	-371.421712	161.639045	1199.644311	-66.318772	193.029872	1114.855244	-348.329690	176.350646	1145.665843	-98.867212	34.689361	1247.946497	-183.992457	44.428094	1244.282954	-279.906371	73.103648	1114.941157	-22.302136	88.051705	1060.191463	-406.168687	214.684961	1025.139740	-18.792211	301.373169	1006.122192	-19.386612	365.931814	947.999184	-23.072153	316.788271	1037.758335	-33.221700	464.757197	876.517098	-43.445091	477.083426	877.214513	-170.764698	398.280530	764.042418	-16.313745	389.300583	676.608081	-40.732294	337.014681	607.486953	-45.466516	415.599208	671.936505	-68.412379	286.896513	500.041875	-58.386376	304.844781	524.272036	-143.626890	208.943426	464.137530	-102.891918	505.559641	481.601188	-95.397829	419.936617	441.980836	-30.398498	126.381742	928.076597	-416.908564	171.966995	853.716654	-409.703249	199.247967	865.882806	-427.122249	173.081403	764.941525	-407.276725	194.854919	637.653343	-379.623152	179.118929	615.745979	-279.645868	20.023911	254.782769	-393.298194	37.613404	274.370258	-305.775063	-47.956076	211.296348	-355.686988	166.842281	208.603868	-414.075916	142.343742	519.108434	-411.190105	122.879183	437.359582	-392.007052	69.798211	367.474143	-399.362646	138.732672	433.692278	-357.047392	237.143055	256.494655	-343.289562	-135.058106	942.172617	-221.953453	26.277268	84.308160	-426.339013	17.412566	80.379088	-27.753352	
3	0.0150	558.990466	1379.015103	-46.187893	583.105028	1390.771872	-403.257516	548.052690	1443.600001	-216.564172	536.401961	1293.549489	-221.556349	631.325718	1134.026301	20.096156	808.748251	887.624843	-43.918190	670.145481	1146.583337	-438.547374	821.337375	892.578225	-391.784953	2.576771	1207.474150	-234.869295	178.865492	1167.170873	-371.432887	161.807239	1199.690317	-66.422851	193.051327	1114.685307	-348.390837	176.448123	1145.710382	-98.964346	34.769321	1248.022036	-183.970080	44.493161	1244.299948	-279.906395	73.242964	1115.107170	-22.237555	87.887142	1060.170753	-406.118229	214.861580	1025.413131	-18.744169	301.545070	1006.572764	-19.423014	366.150971	948.442479	-23.050349	316.934746	1038.145560	-33.277065	465.026816	877.066643	-43.455297	477.362974	877.648341	-170.787511	398.397813	764.586912	-16.308856	389.073837	677.112683	-40.570128	336.937810	608.138263	-45.447426	415.009063	673.050292	-70.496601	286.857115	501.029750	-58.222100	304.647116	524.926889	-143.593841	208.618093	465.098484	-102.844931	505.283153	481.858948	-95.406308	419.568983	442.424904	-30.420339	125.741234	927.948953	-417.021201	171.006351	853.337441	-409.716630	198.204234	865.453819	-427.052297	171.671251	764.522828	-407.277509	193.137287	637.330721	-379.667342	177.260526	615.394064	-279.679604	20.021466	253.638040	-393.276375	37.497769	273.245337	-305.757118	-47.733433	209.803146	-355.641820	167.084255	208.176054	-414.042413	141.020709	518.569770	-411.286752	121.912159	436.785303	-392.140054	69.234084	366.610509	-399.417441	137.890208	433.064961	-357.073628	237.135519	256.432197	-343.304509	-135.057271	942.176933	-221.938704	26.262382	84.295947	-426.332148	17.438762	80.331900	-27.749651	
4	0.0200	559.010715	1378.699993	-46.795832	581.149609	1390.714201	-403.865999	548.320926	1443.685912	-216.678912	528.722023	1290.186352	-215.194700	631.615009	1133.962351	19.605247	808.731997	887.632485	-43.902508	669.217954	1147.687933	-442.472480	821.357911	892.573488	-391.801917	2.698515	1207.515776	-234.856034	179.510622	1168.725894	-376.938856	161.939958	1199.650496	-66.520931	194.667748	1115.366063	-353.271593	176.513102	1145.772572	-99.022015	34.730553	1248.140492	-184.122070	44.420191	1244.420125	-279.798981	73.260427	1115.216139	-22.234184	87.937574	1060.086217	-405.764804	215.007858	1025.681338	-18.732878	301.855898	1007.439619	-18.936736	366.331903	948.516822	-23.908478	317.993540	1038.101618	-32.350453	465.288155	877.444399	-44.597619	481.279822	878.718414	-169.856728	398.629011	765.227437	-16.322965	386.400866	677.569193	-38.401276	336.658375	608.912097	-45.409190	415.741571	674.013428	-73.380579	286.491810	501.896639	-57.992208	304.782058	528.381294	-149.272044	208.327865	465.909925	-102.888746	505.002841	482.122201	-95.423421	419.095605	442.956180	-30.052855	126.142984	930.103450	-421.429481	170.134320	852.981697	-409.554701	199.323854	864.250220	-418.148251	170.679105	764.037845	-406.233421	195.449114	641.769590	-387.918436	174.766986	615.194931	-279.717956	20.449295	251.550559	-391.732203	37.366588	272.370410	-305.717284	-47.495845	208.462469	-355.586726	166.561249	209.688079	-416.753606	139.906347	517.925711	-411.155695	120.916696	437.835013	-395.160432	67.491693	367.463838	-402.136912	136.996577	434.111503	-360.035510	237.140159	256.354040	-343.314169	-135.060479	942.151437	-221.919661	26.294262	84.174736	-426.241493	16.864779	79.010402	-29.982545	
5	0.0250	559.015693	1378.539197	-47.079023	578.499615	1390.601034	-404.654350	548.392969	1443.557760	-216.841462	528.788919	1288.689111	-213.566522	631.205721	1133.153958	19.388595	809.089764	887.451981	-43.335695	671.649599	1146.849080	-435.965139	821.316607	892.465097	-391.721715	2.860341	1207.192557	-234.863449	179.105533	1167.962181	-374.654212	162.218465	1199.535662	-66.445918	196.811517	1116.353575	-359.749559	176.550903	1145.435960	-99.186195	34.757354	1247.744842	-184.157149	44.528733	1244.175197	-279.705659	72.983936	1115.293057	-22.154010	87.331625	1059.889820	-405.039827	214.925132	1025.720579	-18.911124	301.873820	1007.714792	-19.601894	366.224387	948.758062	-25.224610	317.873782	1038.267102	-32.447523	466.049295	877.830601	-43.475391	486.638316	880.013847	-168.549656	398.655438	765.829583	-16.760663	388.475492	677.281788	-35.630045	337.246549	609.219399	-44.550269	416.077337	674.666933	-74.821585	286.436769	502.715660	-56.725210	304.309320	528.034012	-147.567359	208.112529	466.542418	-103.017441	504.839488	482.206299	-95.036325	418.907676	443.151646	-30.640784	124.919819	929.714525	-421.228136	169.138621	852.645604	-409.565234	201.143152	862.822334	-406.378604	169.354650	763.603602	-406.164577	192.594161	639.539360	-384.245785	174.486967	614.773126	-277.509166	19.578216	251.143326	-392.296736	37.642585	271.246277	-305.688435	-47.196157	207.026299	-355.473173	167.539690	207.209456	-413.964604	137.917792	518.099286	-412.364275	120.123256	435.909482	-392.234235	68.155999	364.956296	-399.470930	136.199308	432.244721	-357.336553	237.183884	256.089156	-343.378148	-134.946338	942.070192	-221.869296	26.066015	84.538997	-426.200678	16.831345	79.093609	-29.972661	
